<?xml version="1.0" encoding="utf-8"?>
<!DOCTYPE svg>
<svg
    version="1.1"
    width="24"
    height="24"
    viewBox="0 0 24 24"
    fill="none"
    xmlns="http://www.w3.org/2000/svg"
>
    <g transform="translate(0,8) scale(0.8)">
        <path
            id="Discord-Symbol-Blurple"
            fill="#5865f2"
            d="M8.1 0c-.12 0.22-.23 0.45-.34 0.68-.96-.14-1.9-.14-2.9 0-.099-.23-.21-.46-.34-.68-.9 0.15-1.8 0.42-2.6 0.81C0.28 3.3-.17 5.6 0.053 8c0.97 0.71 2.1 1.3 3.2 1.6 0.26-.35 0.49-.72 0.69-1.1-.37-.14-.73-.31-1.1-.52 0.091-.066 0.18-.13 0.27-.2 2 0.95 4.4 0.95 6.4 0 0.086 0.071 0.17 0.14 0.27 0.2-.35 0.2-.71 0.38-1.1 0.52 0.2 0.39 0.43 0.76 0.69 1.1 1.2-.35 2.2-.89 3.2-1.6 0.26-2.7-.45-5.1-1.9-7.2C9.9 0.43 9 0.16 8.1 0.0051l-.0025-.0051ZM4.2 6.5c-.62 0-1.1-.57-1.1-1.3s0.5-1.3 1.1-1.3 1.2 0.57 1.1 1.3c-.01 0.7-.5 1.3-1.1 1.3ZM8.4 6.5c-.63 0-1.1-.57-1.1-1.3s0.5-1.3 1.1-1.3 1.1 0.57 1.1 1.3c-.01 0.7-.5 1.3-1.1 1.3Z"
        />
    </g>

    <g transform="translate(18,12) scale(0.4)">
        <circle
            r="2.025"
            fill="#53C1DE"
        />
        <g id="ellipse">
            <ellipse
                rx="10.875"
                ry="3.975"
                stroke="#53C1DE"
                stroke-width="0.75"
            />
        </g>
        <use transform="rotate(60)" href="#ellipse" />
        <use transform="rotate(120)" href="#ellipse" />
    </g>

    <text x="8" y="16" fill="white">
        +
    </text>
</svg>
